<svg width="256" height="100" viewBox="0 0 256 100" fill="none" xmlns="http://www.w3.org/2000/svg">
<rect width="256" height="100" rx="26.7064" fill="#FF8F3E"/>
<path d="M88.3381 61.7799C87.0168 62.7865 85.3881 63.5729 83.4523 64.1705C81.5164 64.7682 79.3961 65.0513 77.1222 65.0513C74.6639 65.0513 72.5129 64.6738 70.7 63.9189C68.887 63.164 67.412 62.0945 66.2443 60.7419C65.0767 59.3579 64.2163 57.6908 63.6632 55.7406C63.1101 53.7904 62.8335 51.62 62.8335 49.1979C62.8335 44.0393 64.0626 40.076 66.5516 37.3394C69.0406 34.6028 72.5744 33.2188 77.1837 33.2188C78.6279 33.2188 80.1029 33.376 81.5471 33.722C82.9913 34.0366 84.3127 34.6657 85.4803 35.5464C86.648 36.4586 87.5699 37.6854 88.3073 39.2581C89.0448 40.8309 89.4136 42.8755 89.4136 45.3919C89.4136 45.9895 89.3828 46.713 89.3521 47.5308C89.3214 48.3486 89.2292 49.135 89.137 49.8899H68.0881C68.1495 53.4129 68.9792 56.0866 70.5463 57.8795C72.1135 59.6724 74.7868 60.5846 78.5664 60.5846C80.1336 60.5846 81.6393 60.3015 83.0528 59.7668C84.4663 59.2006 85.5725 58.5401 86.3715 57.7851L88.3381 61.7799ZM84.4663 46.1153C84.5278 43.0642 83.9439 40.8938 82.6533 39.6356C81.3627 38.3774 79.5497 37.7483 77.2451 37.7483C74.6332 37.7483 72.5437 38.3774 71.0073 39.6356C69.4708 40.8938 68.5797 43.0642 68.3032 46.1153H84.4663Z" fill="white"/>
<path d="M117.006 64.2642V47.7188C117.006 46.1146 116.945 44.6992 116.791 43.4724C116.638 42.2457 116.33 41.2391 115.9 40.3898C115.439 39.572 114.825 38.9429 114.026 38.5654C113.227 38.1565 112.182 37.9678 110.922 37.9678C108.925 37.9678 107.296 38.534 105.944 39.6663C104.623 40.7987 103.67 42.2457 103.117 44.0071V64.2956H97.9241V34.0988H101.458L102.472 38.125H103.025C104.223 36.741 105.606 35.5772 107.143 34.665C108.71 33.7213 110.676 33.2495 113.073 33.2495C115.101 33.2495 116.791 33.6899 118.143 34.5706C119.495 35.4514 120.54 36.9298 121.247 39.0058C122.384 37.2443 123.797 35.8603 125.518 34.8223C127.239 33.7842 129.175 33.281 131.295 33.281C133.077 33.281 134.614 33.5012 135.874 33.9101C137.134 34.319 138.148 35.0739 138.946 36.0805C139.745 37.1185 140.299 38.5025 140.698 40.264C141.067 42.0255 141.251 44.2588 141.251 46.9325V64.2642H136.089V46.901C136.089 45.3597 135.997 44.0386 135.843 42.9377C135.689 41.8367 135.351 40.8931 134.921 40.1382C134.46 39.3832 133.846 38.8485 133.047 38.471C132.248 38.0936 131.172 37.9363 129.882 37.9363C127.761 37.9363 126.071 38.5025 124.842 39.6663C123.613 40.8302 122.722 42.5288 122.2 44.825V64.2327H117.006V64.2642Z" fill="white"/>
<path d="M170.197 64.2642V47.7188C170.197 46.1146 170.136 44.6992 169.982 43.4724C169.829 42.2457 169.521 41.2391 169.091 40.3898C168.63 39.572 168.016 38.9429 167.217 38.5654C166.418 38.1565 165.373 37.9678 164.113 37.9678C162.116 37.9678 160.487 38.534 159.135 39.6663C157.814 40.7987 156.861 42.2457 156.308 44.0071V64.2956H151.146V34.0988H154.68L155.694 38.125H156.247C157.445 36.741 158.828 35.5772 160.364 34.665C161.931 33.7213 163.898 33.2495 166.295 33.2495C168.323 33.2495 170.013 33.6899 171.365 34.5706C172.717 35.4514 173.762 36.9298 174.469 39.0058C175.606 37.2443 177.019 35.8603 178.74 34.8223C180.461 33.7842 182.396 33.281 184.517 33.281C186.299 33.281 187.835 33.5012 189.095 33.9101C190.355 34.319 191.369 35.0739 192.168 36.0805C192.967 37.1185 193.52 38.5025 193.92 40.264C194.288 42.0255 194.473 44.2588 194.473 46.9325V64.2642H189.31V46.901C189.31 45.3597 189.218 44.0386 189.065 42.9377C188.911 41.8367 188.573 40.8931 188.143 40.1382C187.682 39.3832 187.067 38.8485 186.268 38.471C185.469 38.0936 184.394 37.9363 183.103 37.9363C180.983 37.9363 179.293 38.5025 178.064 39.6663C176.835 40.8302 175.944 42.5288 175.421 44.825V64.2327H170.197V64.2642Z" fill="white"/>
<path d="M204.705 26.9271C204.705 26.0464 205.043 25.26 205.719 24.5365C206.395 23.813 207.256 23.467 208.362 23.467C209.437 23.467 210.359 23.813 211.066 24.5365C211.773 25.26 212.141 26.0464 212.141 26.9271C212.141 27.8078 211.773 28.5942 211.066 29.2548C210.359 29.9153 209.468 30.2613 208.362 30.2613C207.286 30.2613 206.395 29.9153 205.719 29.2548C205.043 28.5942 204.705 27.8078 204.705 26.9271ZM205.781 34.0988H210.943V64.2642H205.781V34.0988Z" fill="white"/>
<path d="M54.2895 79.4256C51.4011 79.4256 49.1579 78.4819 47.56 76.5632C45.9621 74.6759 45.1632 71.9707 45.1632 68.4792V26.8013H37.3889V22.9009H50.0183V68.4792C50.0183 70.7125 50.4178 72.3797 51.2167 73.512C52.0156 74.6444 53.214 75.2106 54.7505 75.2106H60.4352" fill="white"/>
<path d="M54.291 79.4257L220.9 79.6458V75.2107L54.7827 75.2421L54.291 79.4257Z" fill="white"/>
</svg>
