<svg width="210" height="188" viewBox="0 0 210 188" fill="none" xmlns="http://www.w3.org/2000/svg">
<path d="M208.158 71.895C208.082 71.895 208.009 71.8721 207.947 71.8291L106.057 1.06261C105.747 0.848259 105.379 0.733704 105.001 0.734346C104.624 0.734988 104.256 0.850793 103.947 1.0662L2.79054 71.8284C2.71053 71.8844 2.61151 71.9064 2.51525 71.8895C2.41899 71.8727 2.33338 71.8184 2.27726 71.7386C2.22114 71.6588 2.1991 71.5601 2.216 71.4641C2.23289 71.368 2.28733 71.2827 2.36734 71.2267L103.524 0.464477C103.957 0.162953 104.472 0.000869179 105 3.48593e-06C105.528 -0.000862207 106.044 0.15953 106.478 0.459633L208.368 71.226C208.433 71.2707 208.481 71.3348 208.507 71.4088C208.532 71.4829 208.533 71.563 208.509 71.6377C208.486 71.7123 208.439 71.7775 208.376 71.8238C208.312 71.8701 208.236 71.895 208.158 71.895L208.158 71.895Z" fill="#3F3D56"/>
<path d="M8.57104 74.4035L105.102 3.05664L202.365 79.4802L110.075 134.042L59.9702 122.652L8.57104 74.4035Z" fill="#E6E6E6"/>
<path d="M64.1994 167.743H16.5109C16.218 167.743 15.928 167.686 15.6574 167.574C15.3867 167.463 15.1408 167.299 14.9336 167.093C14.7264 166.887 14.5621 166.641 14.4499 166.372C14.3378 166.102 14.28 165.813 14.28 165.521C14.28 165.229 14.3378 164.94 14.4499 164.67C14.5621 164.4 14.7264 164.155 14.9336 163.949C15.1408 163.742 15.3867 163.579 15.6574 163.467C15.928 163.356 16.218 163.298 16.5109 163.299H64.1994C64.4922 163.298 64.7823 163.356 65.0529 163.467C65.3235 163.579 65.5695 163.742 65.7767 163.949C65.9839 164.155 66.1482 164.4 66.2604 164.67C66.3725 164.94 66.4302 165.229 66.4302 165.521C66.4302 165.813 66.3725 166.102 66.2604 166.372C66.1482 166.641 65.9839 166.887 65.7767 167.093C65.5695 167.299 65.3235 167.463 65.0529 167.574C64.7823 167.686 64.4922 167.743 64.1994 167.743Z" fill="#FF4C00"/>
<path d="M33.6205 158.19H16.5109C16.218 158.19 15.928 158.133 15.6574 158.022C15.3867 157.91 15.1408 157.747 14.9336 157.54C14.7264 157.334 14.5621 157.089 14.4499 156.819C14.3378 156.549 14.28 156.26 14.28 155.968C14.28 155.676 14.3378 155.387 14.4499 155.117C14.5621 154.847 14.7264 154.602 14.9336 154.396C15.1408 154.19 15.3867 154.026 15.6574 153.914C15.928 153.803 16.218 153.746 16.5109 153.746H33.6205C33.9133 153.746 34.2033 153.803 34.474 153.914C34.7446 154.026 34.9905 154.19 35.1977 154.396C35.4049 154.602 35.5693 154.847 35.6814 155.117C35.7936 155.387 35.8513 155.676 35.8513 155.968C35.8513 156.26 35.7936 156.549 35.6814 156.819C35.5693 157.089 35.4049 157.334 35.1977 157.54C34.9905 157.747 34.7446 157.91 34.474 158.022C34.2033 158.133 33.9133 158.19 33.6205 158.19Z" fill="#FF4C00"/>
<path d="M106.459 114.143C106.096 114.143 105.737 114.073 105.402 113.936L45.8684 89.3012V12.1891C45.8692 11.5073 46.1412 10.8535 46.6246 10.3714C47.1081 9.88921 47.7636 9.61798 48.4474 9.61719H162.658C163.342 9.61798 163.997 9.88921 164.481 10.3714C164.964 10.8535 165.236 11.5073 165.237 12.1891V89.355L165.125 89.4028L107.548 113.924C107.203 114.069 106.833 114.143 106.459 114.143Z" fill="white"/>
<path d="M106.459 114.326C106.073 114.326 105.69 114.252 105.332 114.106L45.6843 89.4236V12.1888C45.6852 11.4582 45.9765 10.7577 46.4946 10.2411C47.0126 9.72453 47.7149 9.43393 48.4475 9.43311H162.658C163.391 9.43393 164.093 9.72453 164.611 10.2411C165.129 10.7577 165.42 11.4582 165.421 12.1888V89.476L107.62 114.093C107.253 114.247 106.858 114.326 106.459 114.326ZM46.4211 88.9327L105.613 113.427C106.165 113.65 106.783 113.646 107.333 113.416L164.684 88.9909V12.1888C164.684 11.653 164.47 11.1394 164.09 10.7605C163.71 10.3817 163.195 10.1686 162.658 10.1679H48.4475C47.9103 10.1686 47.3952 10.3817 47.0154 10.7605C46.6355 11.1394 46.4218 11.653 46.4212 12.1888L46.4211 88.9327Z" fill="#3F3D56"/>
<path d="M207.421 71.1602H207.347L165.053 89.1711L107.185 113.814C106.959 113.909 106.716 113.958 106.471 113.96C106.225 113.961 105.982 113.914 105.755 113.821L46.0526 89.1197L2.7189 71.1896L2.6527 71.1602H2.57895C1.8952 71.1609 1.23967 71.4321 0.756192 71.9143C0.27271 72.3965 0.000758671 73.0502 0 73.7321V185.428C0.000759645 186.11 0.27271 186.764 0.756192 187.246C1.23967 187.728 1.8952 187.999 2.57895 188H207.421C208.105 187.999 208.76 187.728 209.244 187.246C209.727 186.764 209.999 186.11 210 185.428V73.7321C209.999 73.0502 209.727 72.3965 209.244 71.9143C208.76 71.4321 208.105 71.1609 207.421 71.1602ZM209.263 185.428C209.263 185.915 209.069 186.382 208.723 186.727C208.378 187.071 207.91 187.265 207.421 187.265H2.57895C2.09045 187.265 1.62202 187.071 1.2766 186.727C0.931181 186.382 0.737037 185.915 0.736842 185.428V73.7321C0.73751 73.257 0.922291 72.8006 1.25255 72.4582C1.58281 72.1159 2.03298 71.9141 2.50897 71.895L46.0526 89.9133L105.472 114.501C106.115 114.762 106.836 114.758 107.476 114.49L165.053 89.9684L207.495 71.895C207.97 71.9155 208.419 72.1178 208.748 72.46C209.078 72.8022 209.262 73.2578 209.263 73.7321V185.428Z" fill="#3F3D56"/>
<path d="M105.864 92.2769C103.666 92.281 101.527 91.5723 99.768 90.2575L99.659 90.1759L76.7023 72.6472C75.6391 71.8348 74.7468 70.8215 74.0763 69.6652C73.4058 68.5089 72.9703 67.2322 72.7945 65.908C72.6187 64.5838 72.7062 63.2381 73.052 61.9476C73.3977 60.6572 73.9949 59.4473 74.8095 58.387C75.6241 57.3267 76.6402 56.4368 77.7996 55.7681C78.9591 55.0994 80.2392 54.665 81.567 54.4898C82.8948 54.3145 84.2442 54.4017 85.5382 54.7465C86.8322 55.0913 88.0454 55.6869 89.1086 56.4993L103.978 67.8702L139.117 22.1679C139.932 21.1079 140.949 20.2183 142.108 19.5501C143.268 18.8818 144.548 18.4478 145.876 18.273C147.204 18.0982 148.553 18.186 149.847 18.5312C151.141 18.8765 152.354 19.4726 153.417 20.2854L153.199 20.5812L153.423 20.2897C155.567 21.933 156.969 24.3574 157.323 27.0309C157.677 29.7044 156.953 32.4087 155.31 34.5506L113.978 88.3074C113.022 89.5462 111.793 90.5486 110.386 91.237C108.979 91.9254 107.431 92.2813 105.864 92.2769Z" fill="#FF4C00"/>
</svg>
