<svg width="215" height="66" viewBox="0 0 215 66" fill="none" xmlns="http://www.w3.org/2000/svg">
<path d="M59.6903 45.2195C58.1423 46.3902 56.2342 47.3049 53.9661 48C51.698 48.6951 49.214 49.0244 46.5499 49.0244C43.6697 49.0244 41.1497 48.5854 39.0256 47.7073C36.9015 46.8293 35.1734 45.5854 33.8054 44.0122C32.4373 42.4024 31.4293 40.4634 30.7813 38.1951C30.1332 35.9268 29.8092 33.4024 29.8092 30.5854C29.8092 24.5854 31.2493 19.9756 34.1654 16.7927C37.0815 13.6098 41.2217 12 46.6219 12C48.3139 12 50.042 12.1829 51.734 12.5854C53.4261 12.9512 54.9742 13.6829 56.3422 14.7073C57.7103 15.7683 58.7903 17.1951 59.6543 19.0244C60.5184 20.8537 60.9504 23.2317 60.9504 26.1585C60.9504 26.8537 60.9144 27.6951 60.8784 28.6463C60.8424 29.5976 60.7344 30.5122 60.6264 31.3902H35.9655C36.0375 35.4878 37.0095 38.5976 38.8456 40.6829C40.6816 42.7683 43.8138 43.8293 48.2419 43.8293C50.078 43.8293 51.8421 43.5 53.4981 42.878C55.1542 42.2195 56.4502 41.4512 57.3863 40.5732L59.6903 45.2195ZM55.1542 27C55.2262 23.4512 54.5422 20.9268 53.0301 19.4634C51.518 18 49.394 17.2683 46.6939 17.2683C43.6337 17.2683 41.1857 18 39.3856 19.4634C37.5855 20.9268 36.5415 23.4512 36.2175 27H55.1542Z" fill="black"/>
<path d="M93.2793 48.1098V28.8659C93.2793 27 93.2072 25.3537 93.0272 23.9269C92.8472 22.5 92.4872 21.3293 91.9832 20.3415C91.4432 19.3903 90.7232 18.6586 89.7871 18.2195C88.8511 17.7439 87.627 17.5244 86.151 17.5244C83.8109 17.5244 81.9028 18.183 80.3188 19.5C78.7707 20.8171 77.6547 22.5 77.0066 24.5488V48.1464H70.9224V13.0244H75.0626L76.2506 17.7074H76.8986C78.3027 16.0976 79.9228 14.7439 81.7228 13.683C83.5589 12.5854 85.863 12.0366 88.6711 12.0366C91.0472 12.0366 93.0272 12.5488 94.6113 13.5732C96.1954 14.5976 97.4194 16.3171 98.2474 18.7317C99.5795 16.683 101.236 15.0732 103.252 13.8659C105.268 12.6586 107.536 12.0732 110.02 12.0732C112.108 12.0732 113.908 12.3293 115.384 12.8049C116.86 13.2805 118.048 14.1586 118.984 15.3293C119.92 16.5366 120.568 18.1464 121.036 20.1952C121.468 22.2439 121.684 24.8415 121.684 27.9513V48.1098H115.636V27.9147C115.636 26.122 115.528 24.5854 115.348 23.3049C115.168 22.0244 114.772 20.9269 114.268 20.0488C113.728 19.1708 113.008 18.5488 112.072 18.1098C111.136 17.6708 109.876 17.4878 108.364 17.4878C105.88 17.4878 103.9 18.1464 102.46 19.5C101.02 20.8537 99.9755 22.8293 99.3635 25.5V48.0732H93.2793V48.1098Z" fill="black"/>
<path d="M155.598 48.1098V28.8659C155.598 27 155.526 25.3537 155.346 23.9269C155.166 22.5 154.806 21.3293 154.302 20.3415C153.762 19.3903 153.042 18.6586 152.106 18.2195C151.17 17.7439 149.946 17.5244 148.47 17.5244C146.13 17.5244 144.222 18.183 142.638 19.5C141.09 20.8171 139.974 22.5 139.326 24.5488V48.1464H133.277V13.0244H137.417L138.606 17.7074H139.254C140.658 16.0976 142.278 14.7439 144.078 13.683C145.914 12.5854 148.218 12.0366 151.026 12.0366C153.402 12.0366 155.382 12.5488 156.966 13.5732C158.55 14.5976 159.774 16.3171 160.602 18.7317C161.934 16.683 163.59 15.0732 165.607 13.8659C167.623 12.6586 169.891 12.0732 172.375 12.0732C174.463 12.0732 176.263 12.3293 177.739 12.8049C179.215 13.2805 180.403 14.1586 181.339 15.3293C182.275 16.5366 182.923 18.1464 183.391 20.1952C183.823 22.2439 184.039 24.8415 184.039 27.9513V48.1098H177.991V27.9147C177.991 26.122 177.883 24.5854 177.703 23.3049C177.523 22.0244 177.127 20.9269 176.623 20.0488C176.083 19.1708 175.363 18.5488 174.427 18.1098C173.491 17.6708 172.231 17.4878 170.719 17.4878C168.235 17.4878 166.255 18.1464 164.814 19.5C163.374 20.8537 162.33 22.8293 161.718 25.5V48.0732H155.598V48.1098Z" fill="black"/>
<path d="M196.028 4.68284C196.028 3.65845 196.424 2.74381 197.216 1.90235C198.008 1.06089 199.016 0.658447 200.312 0.658447C201.572 0.658447 202.652 1.06089 203.48 1.90235C204.308 2.74381 204.74 3.65845 204.74 4.68284C204.74 5.70723 204.308 6.62186 203.48 7.39016C202.652 8.15845 201.608 8.56089 200.312 8.56089C199.052 8.56089 198.008 8.15845 197.216 7.39016C196.424 6.62186 196.028 5.70723 196.028 4.68284ZM197.288 13.0243H203.336V48.1097H197.288V13.0243Z" fill="black"/>
<path d="M19.8007 65.7439C16.4166 65.7439 13.7885 64.6463 11.9164 62.4146C10.0444 60.2195 9.10834 57.0732 9.10834 53.0122V4.53659H0V0H14.7965V53.0122C14.7965 55.6098 15.2646 57.5488 16.2006 58.8659C17.1366 60.1829 18.5407 60.8415 20.3408 60.8415H27.001" fill="black"/>
<path d="M19.8009 65.744L215 66.0001V60.8416L20.3769 60.8781L19.8009 65.744Z" fill="black"/>
</svg>
